<?xml version="1.0" encoding="UTF-8" standalone="no"?>
<!-- Created with Inkscape (http://www.inkscape.org/) -->

<svg
   xmlns:dc="http://purl.org/dc/elements/1.1/"
   xmlns:cc="http://creativecommons.org/ns#"
   xmlns:rdf="http://www.w3.org/1999/02/22-rdf-syntax-ns#"
   xmlns:svg="http://www.w3.org/2000/svg"
   xmlns="http://www.w3.org/2000/svg"
   xmlns:sodipodi="http://sodipodi.sourceforge.net/DTD/sodipodi-0.dtd"
   xmlns:inkscape="http://www.inkscape.org/namespaces/inkscape"
   width="512"
   height="511.99969"
   viewBox="0 0 135.46667 135.46658"
   version="1.1"
   id="svg8"
   inkscape:version="0.92.3 (2405546, 2018-03-11)"
   sodipodi:docname="lanicooks-icon.svg"
   inkscape:export-filename="C:\Users\Administrator\Downloads\lanicooks-icon.png"
   inkscape:export-xdpi="96"
   inkscape:export-ydpi="96">
  <defs
     id="defs2">
    <linearGradient
       id="linearGradient3739"
       spreadMethod="pad"
       gradientTransform="matrix(22.954588,-92.065803,-92.065803,-22.954588,186.18115,344.99707)"
       gradientUnits="userSpaceOnUse"
       y2="0"
       x2="1"
       y1="0"
       x1="0">
      <stop
         id="stop3735"
         offset="0"
         style="stop-opacity:1;stop-color:#98181c" />
      <stop
         id="stop3737"
         offset="1"
         style="stop-opacity:1;stop-color:#ffffff" />
    </linearGradient>
    <clipPath
       id="clipPath3749"
       clipPathUnits="userSpaceOnUse">
      <path
         inkscape:connector-curvature="0"
         id="path3747"
         d="M 0,612 H 792 V 0 H 0 Z" />
    </clipPath>
    <clipPath
       id="clipPath3833"
       clipPathUnits="userSpaceOnUse">
      <path
         inkscape:connector-curvature="0"
         id="path3831"
         d="M 0,612 H 792 V 0 H 0 Z" />
    </clipPath>
    <clipPath
       id="clipPath3849"
       clipPathUnits="userSpaceOnUse">
      <path
         inkscape:connector-curvature="0"
         id="path3847"
         d="M 0,612 H 792 V 0 H 0 Z" />
    </clipPath>
    <clipPath
       id="clipPath3893"
       clipPathUnits="userSpaceOnUse">
      <path
         inkscape:connector-curvature="0"
         id="path3891"
         d="M 0,612 H 792 V 0 H 0 Z" />
    </clipPath>
  </defs>
  <sodipodi:namedview
     id="base"
     pagecolor="#ffffff"
     bordercolor="#666666"
     borderopacity="1.0"
     inkscape:pageopacity="0.0"
     inkscape:pageshadow="2"
     inkscape:zoom="0.76095916"
     inkscape:cx="-56.433182"
     inkscape:cy="504.57125"
     inkscape:document-units="mm"
     inkscape:current-layer="layer1"
     showgrid="false"
     fit-margin-top="0"
     fit-margin-left="0"
     fit-margin-right="0"
     fit-margin-bottom="0"
     units="px"
     inkscape:window-width="1920"
     inkscape:window-height="1137"
     inkscape:window-x="-8"
     inkscape:window-y="-8"
     inkscape:window-maximized="1" />
  <metadata
     id="metadata5">
    <rdf:RDF>
      <cc:Work
         rdf:about="">
        <dc:format>image/svg+xml</dc:format>
        <dc:type
           rdf:resource="http://purl.org/dc/dcmitype/StillImage" />
        <dc:title></dc:title>
      </cc:Work>
    </rdf:RDF>
  </metadata>
  <g
     inkscape:label="Layer 1"
     inkscape:groupmode="layer"
     id="layer1"
     transform="translate(-238.39356,-237.58219)">
    <g
       id="g3723"
       transform="matrix(0.35277777,0,0,-0.35277777,223.6323,409.94144)">
      <g
         id="g3725">
        <g
           id="g3731">
          <g
             id="g3733">
            <path
               d="m 260.123,335.426 c -3.951,-4.266 2.528,-9.324 1.106,-8.691 v 0 c -1.422,0.632 -7.27,-3.477 -4.266,-8.851 v 0 c 3.003,-5.373 15.329,-8.06 14.539,-14.698 v 0 c -0.789,-6.638 -6.005,-4.267 -5.846,-12.17 v 0 c 0.386,-19.336 -22.638,-19.583 -36.826,-15.014 v 0 c -5.536,1.782 -3.653,0.703 -5.674,0.541 v 0 c -0.483,-3.671 0.933,-5.915 0.933,-5.915 v 0 c 0,0 3.794,1.185 7.271,0.474 v 0 c 3.477,-0.711 6.874,-4.188 6.874,-4.188 v 0 c 0,0 9.799,-2.845 15.726,-10.668 v 0 c 5.928,-7.823 5.848,-21.258 5.848,-21.258 v 0 l 2.408,-1.527 c 2.604,3.055 12.783,15.198 20.034,39.854 v 0 c 7.902,26.867 -6.954,61.954 -9.641,64.956 v 0 c -0.949,1.062 -2.294,1.551 -3.81,1.551 v 0 c -2.773,0 -6.121,-1.636 -8.676,-4.396 m -141.292,-18.807 -4.426,-35.402 8.535,-27.5 29.04,-33.928 c 0.426,6.194 1.012,12.611 1.78,16.701 v 0 c 1.896,10.115 13.275,16.832 14.934,17.227 v 0 c 1.66,0.395 7.902,3.714 7.902,3.714 v 0 l -2.686,3.32 10.984,5.61 3.318,-4.03 2.055,-0.237 c 0,0 0.475,0.474 1.265,2.212 v 0 c 0.23,0.505 0.433,1.333 0.605,2.251 v 0 c -9.074,-1.354 -7.827,6.957 -16.094,7.548 v 0 c -2.951,0.21 -6.797,-1.141 -11.275,-2.494 v 0 c -8.956,-2.704 -20.44,-5.408 -32.347,4.391 v 0 c -17.858,14.698 -5.847,50.417 -5.847,50.417 v 0 z"
               style="fill:url(#linearGradient3739);stroke:none"
               id="path3741"
               inkscape:connector-curvature="0" />
          </g>
        </g>
      </g>
    </g>
    <g
       id="g3743"
       transform="matrix(0.62005402,0,0,-0.62005402,181.83105,489.20957)">
      <g
         id="g3745"
         clip-path="url(#clipPath3749)">
        <g
           id="g3751"
           transform="translate(172.6274,324.5503)">
          <path
             d="m 0,0 c -0.753,-13.611 2.59,-26.571 13.17,-35.571 8.212,-6.989 17.242,-9.753 23.399,-9.115 5.107,0.528 11.91,6.785 16.58,13.697 8.313,12.303 5.887,24.915 2.218,38.764 0,0 3.161,-21.446 -1.452,-32.468 C 49.3,-35.714 39.047,-42.38 34.946,-42.978 32.156,-43.384 22.722,-39.796 15.549,-34.53 4.927,-26.73 2.453,-12.451 0,0"
             style="fill:#231f20;fill-opacity:1;fill-rule:evenodd;stroke:none"
             id="path3753"
             inkscape:connector-curvature="0" />
        </g>
        <g
           id="g3755"
           transform="translate(193.6245,329.6123)">
          <path
             d="m 0,0 c 0,0 -5.895,3.418 -10.125,2.479 -4.229,-0.94 -4.913,-4.273 -4.913,-4.273 0,0 3.289,2.69 7.861,2.478 C -2.606,0.471 0,0 0,0"
             style="fill:#231f20;fill-opacity:1;fill-rule:evenodd;stroke:none"
             id="path3757"
             inkscape:connector-curvature="0" />
        </g>
        <g
           id="g3759"
           transform="translate(196.145,317.7793)">
          <path
             d="m 0,0 c 0,0 -2.607,4.4 -6.408,4.656 -3.802,0.257 -5.981,-2.135 -8.373,-2.221 -2.393,-0.086 -3.333,0.982 -3.333,0.982 0,0 1.026,-2.007 2.82,-2.691 1.794,-0.684 2.777,-0.556 2.777,-0.556 0,0 -0.47,-2.262 2.477,-3.715 2.948,-1.454 4.444,1.365 4.444,1.365 0,0 -4.144,0.685 -2.735,2.607 1.41,1.922 3.418,-0.812 3.418,-0.812 0,0 0.77,0.257 1.026,0.94 0.256,0.683 0.298,1.324 0.298,1.324 z"
             style="fill:#231f20;fill-opacity:1;fill-rule:evenodd;stroke:none"
             id="path3761"
             inkscape:connector-curvature="0" />
        </g>
        <g
           id="g3763"
           transform="translate(207.416,330.561)">
          <path
             d="m 0,0 c 0,0 4.786,4.853 9.113,5.061 4.327,0.208 5.866,-2.827 5.866,-2.827 0,0 -3.883,1.728 -8.236,0.318 C 2.39,1.141 0,0 0,0"
             style="fill:#231f20;fill-opacity:1;fill-rule:evenodd;stroke:none"
             id="path3765"
             inkscape:connector-curvature="0" />
        </g>
        <g
           id="g3767"
           transform="translate(208.1045,318.4819)">
          <path
             d="m 0,0 c 0,0 1.355,4.932 4.954,6.182 3.6,1.249 6.332,-0.483 8.663,0.065 2.33,0.547 2.955,1.826 2.955,1.826 0,0 -0.459,-2.207 -2.01,-3.34 -1.55,-1.132 -2.532,-1.268 -2.532,-1.268 0,0 1.05,-2.059 -1.41,-4.238 -2.46,-2.179 -4.647,0.147 -4.647,0.147 0,0 3.818,1.752 1.951,3.234 C 6.057,4.091 4.841,0.924 4.841,0.924 c 0,0 -0.81,0.044 -1.237,0.637 C 3.177,2.152 2.967,2.76 2.967,2.76 Z"
             style="fill:#231f20;fill-opacity:1;fill-rule:evenodd;stroke:none"
             id="path3769"
             inkscape:connector-curvature="0" />
        </g>
        <g
           id="g3771"
           transform="translate(196.3374,300.5371)">
          <path
             d="m 0,0 c 1.899,-1.759 3.829,-3.529 6.508,-3.767 7.415,-0.66 9.396,3.945 10.524,6.285 0.296,0.615 0.099,1.058 0.511,1.453 0.927,0.887 2.558,2.066 2.905,-0.02 0.098,-0.593 -0.198,-1.344 -0.198,-1.344 0,0 -0.711,0.653 -1.067,0.456 -0.355,-0.199 -0.474,-0.731 -0.75,-2.015 -0.277,-1.285 -3.675,-6.817 -5.571,-7.884 -1.897,-1.066 -7.014,-0.197 -8.95,1.028 -1.936,1.225 -3.931,3.694 -4.03,3.773 -0.099,0.079 -1.186,1.225 -1.778,1.324 -0.593,0.099 -0.632,-1.087 -0.632,-1.087 0,0 -0.81,0.751 -0.731,1.601 C -3.06,1.944 -1.186,1.1 0,0"
             style="fill:#231f20;fill-opacity:1;fill-rule:evenodd;stroke:none"
             id="path3773"
             inkscape:connector-curvature="0" />
        </g>
        <g
           id="g3775"
           transform="translate(196.0146,298.8574)">
          <path
             d="m 0,0 c 0,0 4.4,-4.657 9.228,-4.743 4.828,-0.085 7.092,3.333 8.075,5.085 0.983,1.751 1.752,3.887 1.752,3.887 0,0 0.469,-5.255 -1.368,-8.545 C 15.85,-7.604 11.963,-9.4 6.879,-8.203 1.794,-7.007 0,0 0,0"
             style="fill:#ed1c24;fill-opacity:1;fill-rule:evenodd;stroke:none"
             id="path3777"
             inkscape:connector-curvature="0" />
        </g>
        <g
           id="g3779"
           transform="translate(215.1543,305.1797)">
          <path
             d="m 0,0 c 0,0 -4.956,0.811 -7.52,0.384 -2.563,-0.427 -3.459,-1.196 -3.459,-1.196 0,0 -2.436,0.896 -4.657,-0.043 -2.221,-0.939 -4.956,-3.162 -4.956,-3.162 0,0 6.11,-1.28 11.066,-0.469 C -4.571,-3.674 0,0 0,0"
             style="fill:#ed1c24;fill-opacity:1;fill-rule:evenodd;stroke:none"
             id="path3781"
             inkscape:connector-curvature="0" />
        </g>
        <g
           id="g3783"
           transform="translate(171.666,325.7661)">
          <path
             d="m 0,0 c -2.257,-10.271 -6.572,-15.966 -15.785,-20.419 -3.767,-1.822 -6.813,-3.433 -8.771,-5.36 -8.007,-7.882 0.148,-19.241 11.517,-19.975 12.249,-0.79 13.355,4.03 13.355,4.03 4.559,-5.033 15.696,-6.63 16.358,3.636 0,0 -11.458,10.351 -12.96,16.436 C 2.213,-15.567 0.791,0.711 0.791,0.711 0.527,0.474 0.264,0.237 0,0"
             style="fill:#231f20;fill-opacity:1;fill-rule:evenodd;stroke:none"
             id="path3785"
             inkscape:connector-curvature="0" />
        </g>
        <g
           id="g3787"
           transform="translate(225.7974,336.7505)">
          <path
             d="m 0,0 c 14.457,-11.32 11.035,-21.08 16.437,-24.655 3.921,-2.595 9.016,-1.37 12,-5.147 5.039,-6.378 -5.778,-18.776 -11.763,-14.53 -4.726,-7.211 -14.741,-9.018 -19.44,-1.501 0,0 5.611,5.926 6.638,19.439 C 4.899,-12.88 0,0 0,0"
             style="fill:#231f20;fill-opacity:1;fill-rule:evenodd;stroke:none"
             id="path3789"
             inkscape:connector-curvature="0" />
        </g>
        <g
           id="g3791"
           transform="translate(218.6069,286.8086)">
          <path
             d="M 0,0 C -0.207,-4.686 -0.195,-22.147 4.346,-24.418 0.84,-15.328 2.473,-7.771 2.845,2.923 1.896,1.949 0.948,0.975 0,0 m -24.813,-1.502 c 3.319,-7.745 2.178,-24.339 -6.48,-27.025 12.069,1.017 11.681,16.737 9.404,25.366 -0.975,0.554 -1.95,1.106 -2.924,1.659"
             style="fill:#231f20;fill-opacity:1;fill-rule:evenodd;stroke:none"
             id="path3793"
             inkscape:connector-curvature="0" />
        </g>
        <g
           id="g3795"
           transform="translate(226.9121,345.5435)">
          <path
             d="M 0,0 C 1.292,12.226 1.351,23.872 5.693,35.288 9.336,44.869 5.754,49.853 -4.111,54.504 -50.229,76.246 -86.473,30.591 -69.033,15.547 -81.18,68.51 17.328,60.995 2.246,36.567 1.26,34.543 -1.447,12.53 -2.373,3.213 c -1.733,1.11 -5.886,2.78 -12.446,3.556 l -1.11,32.327 -2.346,-32.022 c -3.199,0.191 -6.851,0.168 -10.957,-0.189 l -5.663,36.952 1.941,-37.418 C -35.748,5.952 -39.43,5.129 -43.169,3.951 l -10.533,38.622 6.815,-39.917 c -3.7,-1.421 -7.175,-3.201 -9.581,-5.34 l -10.668,25.659 8.219,-28.629 c -0.544,-1.006 -0.849,-2.071 -0.849,-3.198 0,-1.264 1.58,-3.002 1.58,-3.002 -0.118,7.625 13.356,12.688 19.393,14.146 12.402,2.995 30.231,3.671 37.82,-3.241 0.338,-1.991 0.616,-3.942 -0.158,-4.346 -12.447,3.603 -59.231,1.905 -56.106,-11.933 4.287,11.214 51.843,15.509 56.306,9.069 C 1.664,-8.11 0.908,-1.975 0,0"
             style="fill:#231f20;fill-opacity:1;fill-rule:evenodd;stroke:none"
             id="path3797"
             inkscape:connector-curvature="0" />
        </g>
        <g
           id="g3799"
           transform="translate(175.8047,254.666)">
          <path
             d="m 0,0 c 0,0 -12.012,-4.426 -16.911,-11.695 -4.9,-7.27 -2.529,-28.607 -2.529,-28.607 0,0 0.474,18.018 6.638,26.868 C -6.638,-4.584 0,0 0,0"
             style="fill:#231f20;fill-opacity:1;fill-rule:evenodd;stroke:none"
             id="path3801"
             inkscape:connector-curvature="0" />
        </g>
        <g
           id="g3803"
           transform="translate(239.9707,263.042)">
          <path
             d="m 0,0 c 0,0 10.432,-4.74 14.066,-12.327 3.635,-7.586 3.477,-22.126 3.477,-22.126 0,0 -3.793,15.963 -7.111,22.442 C 7.112,-5.531 0,0 0,0"
             style="fill:#231f20;fill-opacity:1;fill-rule:evenodd;stroke:none"
             id="path3805"
             inkscape:connector-curvature="0" />
        </g>
        <g
           id="g3807"
           transform="translate(232.4712,363.6553)">
          <path
             d="m 0,0 c 27.887,-12.308 47.354,-40.198 47.354,-72.638 0,-43.832 -35.534,-79.365 -79.365,-79.365 -43.833,0 -79.365,35.533 -79.365,79.365 0,27.456 13.942,51.654 35.133,65.904 -0.592,1.149 -1.508,2.746 -2.787,4.505 -1.073,1.475 -1.747,3.46 -2.168,5.259 -24.715,-16.099 -41.058,-43.973 -41.058,-75.668 0,-49.841 40.404,-90.245 90.245,-90.245 49.84,0 90.244,40.404 90.244,90.245 0,37.518 -22.898,69.686 -55.479,83.3 C 1.323,7.875 0.478,3.503 0,0"
             style="fill:#231f20;fill-opacity:1;fill-rule:evenodd;stroke:none"
             id="path3809"
             inkscape:connector-curvature="0" />
        </g>
        <g
           id="g3811"
           transform="translate(185.1284,264.4658)">
          <path
             d="m 0,0 c 4.331,-5.122 10.244,-15.975 9.799,-22.285 13.117,2.16 26.235,4.32 39.353,6.48 -2.359,7.372 -3.141,15.435 -11.221,17.385 0,0 4.741,3.161 8.85,1.107 13.953,-6.976 21.089,-54.325 24.34,-68.119 -23.918,-3.898 -47.836,-7.797 -71.753,-11.694 1.096,14.554 6.91,54.595 -0.949,67.169 -2.37,3.793 -6.795,5.373 -6.795,5.373 C -5.584,-3.056 -2.792,-1.528 0,0"
             style="fill:#98181c;fill-opacity:1;fill-rule:evenodd;stroke:none"
             id="path3813"
             inkscape:connector-curvature="0" />
        </g>
        <g
           id="g3815"
           transform="translate(203.7437,226.1094)">
          <path
             d="m 0,0 32.805,6.352 c 0,0 1.946,-6.549 2.958,-12.695 C 37.927,-19.483 19.41,-22.742 8.578,-18.914 -0.915,-15.558 -0.535,-5.947 0,0"
             style="fill:#ffffff;fill-opacity:1;fill-rule:evenodd;stroke:none"
             id="path3817"
             inkscape:connector-curvature="0" />
        </g>
        <g
           id="g3819"
           transform="translate(199.9092,309.5049)">
          <path
             d="m 0,0 c 2.77,-1.211 4.327,-1.449 6.485,1.079 0,0 -0.583,-2.459 -2.369,-3.064 C 2.331,-2.589 0,0 0,0"
             style="fill:#231f20;fill-opacity:1;fill-rule:evenodd;stroke:none"
             id="path3821"
             inkscape:connector-curvature="0" />
        </g>
      </g>
    </g>
  </g>
</svg>
