<svg xmlns="http://www.w3.org/2000/svg" viewBox="0 0 24 24"><path d="M11.984.898C5.852.898.883 5.868.883 12c0 4.7 2.918 8.715 7.05 10.332-.101-.883-.183-2.215.032-3.184l1.3-5.515s-.331-.668-.331-1.649c0-1.55.898-2.699 2-2.699.949 0 1.398.715 1.398 1.567 0 .949-.598 2.382-.914 3.699-.27 1.097.547 2 1.648 2 1.97 0 3.485-2.086 3.485-5.086 0-2.649-1.918-4.516-4.633-4.516-3.152 0-5.02 2.367-5.02 4.817 0 .949.368 1.984.836 2.535.082.117.098.199.082.316-.082.348-.265 1.098-.3 1.25-.051.2-.164.25-.368.149-1.382-.649-2.25-2.664-2.25-4.301C4.898 8.215 7.45 5 12.234 5c3.848 0 6.832 2.75 6.832 6.398 0 3.817-2.418 6.903-5.75 6.903-1.117 0-2.183-.586-2.55-1.266 0 0-.551 2.113-.684 2.633-.25.965-.934 2.164-1.383 2.914 1.035.316 2.133.5 3.285.5a11.093 11.093 0 0 0 11.098-11.098c0-6.117-4.965-11.086-11.098-11.086zm0 0" fill="#bd081c"/></svg>